<svg width="20" height="20" viewBox="0 0 20 20" fill="none" xmlns="http://www.w3.org/2000/svg">
<path d="M7.5 1.25C5.09033 1.25 3.125 3.21533 3.125 5.625C3.125 7.13135 3.89404 8.46924 5.05859 9.25781C2.82959 10.2148 1.25 12.4268 1.25 15H2.5C2.5 12.2314 4.73145 10 7.5 10C8.35938 10 9.16016 10.2246 9.86328 10.6055C9.16992 11.4648 8.75 12.5635 8.75 13.75C8.75 16.5039 10.9961 18.75 13.75 18.75C16.5039 18.75 18.75 16.5039 18.75 13.75C18.75 10.9961 16.5039 8.75 13.75 8.75C12.6587 8.75 11.6431 9.10889 10.8203 9.70703C10.5444 9.53369 10.2441 9.38721 9.94141 9.25781C11.106 8.46924 11.875 7.13135 11.875 5.625C11.875 3.21533 9.90967 1.25 7.5 1.25ZM7.5 2.5C9.2334 2.5 10.625 3.8916 10.625 5.625C10.625 7.3584 9.2334 8.75 7.5 8.75C5.7666 8.75 4.375 7.3584 4.375 5.625C4.375 3.8916 5.7666 2.5 7.5 2.5ZM13.75 10C15.8276 10 17.5 11.6724 17.5 13.75C17.5 15.8276 15.8276 17.5 13.75 17.5C11.6724 17.5 10 15.8276 10 13.75C10 11.6724 11.6724 10 13.75 10ZM15.8008 12.0508L13.75 14.1016L12.3242 12.6758L11.4258 13.5742L13.3008 15.4492L13.75 15.8789L14.1992 15.4492L16.6992 12.9492L15.8008 12.0508Z" fill="#109CF1"/>
</svg>
