<svg width="20" height="20" viewBox="0 0 20 20" fill="none" xmlns="http://www.w3.org/2000/svg">
<path d="M10 2.5C8.62549 2.5 7.5 3.62549 7.5 5C7.5 5.64697 7.75635 6.23291 8.16406 6.67969C7.91016 6.8042 7.68555 6.95801 7.46094 7.12891C7.28027 5.92773 6.24756 5 5 5C3.62549 5 2.5 6.12549 2.5 7.5C2.5 8.1665 2.771 8.76953 3.20312 9.21875C3.04199 9.30664 2.88086 9.40186 2.73438 9.51172C1.8335 10.1953 1.25 11.2842 1.25 12.5H2.5C2.5 11.6821 2.89307 10.9644 3.49609 10.5078C3.91602 10.1904 4.43115 10 5 10C5.38818 10 5.75195 10.105 6.09375 10.2734L6.77734 10.6055L6.97266 9.86328C7.31445 8.51074 8.53271 7.5 10 7.5C11.4648 7.5 12.6831 8.49365 13.0273 9.84375L13.2227 10.6055L13.9062 10.2539C14.2432 10.0879 14.6094 10 15 10C16.3867 10 17.5 11.1133 17.5 12.5H18.75C18.75 11.0913 17.9541 9.8584 16.7969 9.21875C17.229 8.76953 17.5 8.1665 17.5 7.5C17.5 6.12549 16.3745 5 15 5C13.7524 5 12.7197 5.92773 12.5391 7.12891C12.3145 6.95801 12.0898 6.8042 11.8359 6.67969C12.2437 6.23291 12.5 5.64697 12.5 5C12.5 3.62549 11.3745 2.5 10 2.5ZM10 3.75C10.6982 3.75 11.25 4.30176 11.25 5C11.25 5.69824 10.6982 6.25 10 6.25C9.30176 6.25 8.75 5.69824 8.75 5C8.75 4.30176 9.30176 3.75 10 3.75ZM5 6.25C5.69824 6.25 6.25 6.80176 6.25 7.5C6.25 8.19824 5.69824 8.75 5 8.75C4.30176 8.75 3.75 8.19824 3.75 7.5C3.75 6.80176 4.30176 6.25 5 6.25ZM15 6.25C15.6982 6.25 16.25 6.80176 16.25 7.5C16.25 8.19824 15.6982 8.75 15 8.75C14.3018 8.75 13.75 8.19824 13.75 7.5C13.75 6.80176 14.3018 6.25 15 6.25ZM10 10C8.62549 10 7.5 11.1255 7.5 12.5C7.5 13.1665 7.771 13.7695 8.20312 14.2188C7.0459 14.8584 6.25 16.0913 6.25 17.5H7.5C7.5 16.1133 8.61328 15 10 15C11.3867 15 12.5 16.1133 12.5 17.5H13.75C13.75 16.0913 12.9541 14.8584 11.7969 14.2188C12.229 13.7695 12.5 13.1665 12.5 12.5C12.5 11.1255 11.3745 10 10 10ZM10 11.25C10.6982 11.25 11.25 11.8018 11.25 12.5C11.25 13.1982 10.6982 13.75 10 13.75C9.30176 13.75 8.75 13.1982 8.75 12.5C8.75 11.8018 9.30176 11.25 10 11.25Z" fill="#109CF1"/>
</svg>
