<svg width="20" height="20" viewBox="0 0 20 20" fill="none" xmlns="http://www.w3.org/2000/svg">
<path d="M10 2.5C7.93701 2.5 6.25 4.18701 6.25 6.25C6.25 7.46094 6.83838 8.53271 7.73438 9.21875C6.72852 9.6582 5.896 10.4028 5.29297 11.3281C4.76318 11.5088 4.36279 12.0288 4.45312 12.6367H4.43359L4.58984 13.8086C3.75977 14.0015 3.125 14.7412 3.125 15.625C3.125 16.6528 3.97217 17.5 5 17.5H15C16.0278 17.5 16.875 16.6528 16.875 15.625C16.875 14.7119 16.2012 13.9502 15.332 13.7891L15.4883 12.6562C15.4883 12.6489 15.4883 12.644 15.4883 12.6367C15.5737 12.0654 15.2271 11.5771 14.7461 11.3672C14.1431 10.4492 13.291 9.69482 12.2656 9.23828C13.1665 8.55225 13.75 7.46582 13.75 6.25C13.75 4.18701 12.063 2.5 10 2.5ZM10 3.75C11.3892 3.75 12.5 4.86084 12.5 6.25C12.5 7.63916 11.3892 8.75 10 8.75C8.61084 8.75 7.5 7.63916 7.5 6.25C7.5 4.86084 8.61084 3.75 10 3.75ZM10 10C11.1816 10 12.2559 10.4883 13.0469 11.25H6.91406C7.70752 10.4614 8.7915 10 10 10ZM5.68359 12.5H14.2578L13.75 16.2305V16.25H6.19141C6.19873 16.25 6.19141 16.2329 6.19141 16.2305L5.68359 12.5ZM13.125 13.125C12.7808 13.125 12.5 13.4058 12.5 13.75C12.5 14.0942 12.7808 14.375 13.125 14.375C13.4692 14.375 13.75 14.0942 13.75 13.75C13.75 13.4058 13.4692 13.125 13.125 13.125ZM15.1758 15.0391C15.4321 15.1172 15.625 15.3418 15.625 15.625C15.625 15.9717 15.3467 16.25 15 16.25L15.1758 15.0391ZM4.76562 15.0586L4.92188 16.2305C4.6167 16.189 4.375 15.9424 4.375 15.625C4.375 15.3662 4.54102 15.1538 4.76562 15.0586Z" fill="#109CF1"/>
</svg>
