<svg width="20" height="20" viewBox="0 0 20 20" fill="none" xmlns="http://www.w3.org/2000/svg">
<path d="M7.1875 3.75C5.98633 3.75 5 4.73633 5 5.9375C5 7.13867 5.98633 8.125 7.1875 8.125C8.38867 8.125 9.375 7.13867 9.375 5.9375C9.375 4.73633 8.38867 3.75 7.1875 3.75ZM12.8125 3.75C11.6113 3.75 10.625 4.73633 10.625 5.9375C10.625 7.13867 11.6113 8.125 12.8125 8.125C14.0137 8.125 15 7.13867 15 5.9375C15 4.73633 14.0137 3.75 12.8125 3.75ZM7.1875 5C7.7124 5 8.125 5.4126 8.125 5.9375C8.125 6.4624 7.7124 6.875 7.1875 6.875C6.6626 6.875 6.25 6.4624 6.25 5.9375C6.25 5.4126 6.6626 5 7.1875 5ZM12.8125 5C13.3374 5 13.75 5.4126 13.75 5.9375C13.75 6.4624 13.3374 6.875 12.8125 6.875C12.2876 6.875 11.875 6.4624 11.875 5.9375C11.875 5.4126 12.2876 5 12.8125 5ZM4.375 7.5C3.00049 7.5 1.875 8.62549 1.875 10C1.875 10.6958 2.17285 11.3232 2.63672 11.7773C1.8042 12.3413 1.25 13.3008 1.25 14.375H2.5C2.5 13.3325 3.33252 12.5 4.375 12.5C5.41748 12.5 6.25 13.3325 6.25 14.375H7.5C7.5 13.3008 6.9458 12.3413 6.11328 11.7773C6.57715 11.3232 6.875 10.6958 6.875 10C6.875 8.62549 5.74951 7.5 4.375 7.5ZM7.5 14.375C7.10938 14.8975 6.875 15.5542 6.875 16.25H8.125C8.125 15.2075 8.95752 14.375 10 14.375C11.0425 14.375 11.875 15.2075 11.875 16.25H13.125C13.125 15.5542 12.8906 14.8975 12.5 14.375C12.2876 14.0918 12.0312 13.8501 11.7383 13.6523C12.2021 13.1982 12.5 12.5708 12.5 11.875C12.5 10.5005 11.3745 9.375 10 9.375C8.62549 9.375 7.5 10.5005 7.5 11.875C7.5 12.5708 7.79785 13.1982 8.26172 13.6523C7.96875 13.8501 7.7124 14.0918 7.5 14.375ZM12.5 14.375H13.75C13.75 13.3325 14.5825 12.5 15.625 12.5C16.6675 12.5 17.5 13.3325 17.5 14.375H18.75C18.75 13.3008 18.1958 12.3413 17.3633 11.7773C17.8271 11.3232 18.125 10.6958 18.125 10C18.125 8.62549 16.9995 7.5 15.625 7.5C14.2505 7.5 13.125 8.62549 13.125 10C13.125 10.6958 13.4229 11.3232 13.8867 11.7773C13.0542 12.3413 12.5 13.3008 12.5 14.375ZM4.375 8.75C5.07324 8.75 5.625 9.30176 5.625 10C5.625 10.6982 5.07324 11.25 4.375 11.25C3.67676 11.25 3.125 10.6982 3.125 10C3.125 9.30176 3.67676 8.75 4.375 8.75ZM15.625 8.75C16.3232 8.75 16.875 9.30176 16.875 10C16.875 10.6982 16.3232 11.25 15.625 11.25C14.9268 11.25 14.375 10.6982 14.375 10C14.375 9.30176 14.9268 8.75 15.625 8.75ZM10 10.625C10.6982 10.625 11.25 11.1768 11.25 11.875C11.25 12.5732 10.6982 13.125 10 13.125C9.30176 13.125 8.75 12.5732 8.75 11.875C8.75 11.1768 9.30176 10.625 10 10.625Z" fill="#109CF1"/>
</svg>
