<svg width="20" height="20" viewBox="0 0 20 20" fill="none" xmlns="http://www.w3.org/2000/svg">
<path d="M11.25 2.5C8.95996 2.5 7.22168 3.03955 6.05469 4.14062C4.8877 5.2417 4.375 6.84814 4.375 8.75V9.31641C4.01611 9.65576 3.75 10.0928 3.75 10.625C3.75 11.4111 4.30664 11.9727 5 12.2461C5.23193 12.9761 5.4834 13.7427 5.76172 14.3945C6.06689 15.1074 6.34033 15.6738 6.71875 16.0742C8.51318 17.9712 11.4868 17.9712 13.2812 16.0742C13.6597 15.6738 13.9136 15.1074 14.2188 14.3945C14.4971 13.7427 14.7681 12.9761 15 12.2461C15.6934 11.9727 16.25 11.4111 16.25 10.625C16.25 10.0952 15.9814 9.6582 15.625 9.31641V8.75C15.625 6.98486 15.2222 5.72754 14.5117 4.90234C13.9087 4.20166 13.103 3.91602 12.3047 3.82812L11.6406 2.5H11.25ZM10.8789 3.78906L11.3086 4.64844C11.5161 5.06592 11.5991 5.36133 11.6016 5.48828C11.604 5.61523 11.6089 5.56397 11.582 5.58594C11.5283 5.63232 11.001 5.7666 10.3516 5.80078C9.70215 5.83496 8.93555 5.81787 8.22266 6.09375C7.50977 6.36963 6.88232 7.11182 6.875 8.125H8.125C8.12988 7.50977 8.27393 7.41943 8.67188 7.26562C9.06982 7.11182 9.7583 7.06543 10.4297 7.03125C11.1011 6.99707 11.7944 7.03857 12.3828 6.54297C12.6758 6.29639 12.8638 5.86914 12.8516 5.44922C12.8491 5.35645 12.8271 5.26855 12.8125 5.17578C13.0835 5.29053 13.335 5.46631 13.5547 5.72266C14.0088 6.25 14.375 7.17529 14.375 8.75V9.90234L14.6875 10.0781C14.8779 10.188 15 10.3882 15 10.625C15 10.9595 14.7607 11.2231 14.4336 11.25L14.0039 11.2695L13.8867 11.6797C13.6548 12.4316 13.3667 13.2251 13.0859 13.8867C12.8052 14.5483 12.4829 15.1099 12.3828 15.2148C11.0522 16.6211 8.94775 16.6211 7.61719 15.2148C7.51709 15.1099 7.19482 14.5483 6.91406 13.8867C6.6333 13.2251 6.34522 12.4316 6.11328 11.6797L5.99609 11.2695L5.56641 11.25C5.23926 11.2231 5 10.9595 5 10.625C5 10.3906 5.11963 10.188 5.3125 10.0781L5.625 9.90234V8.75C5.625 7.06543 6.05225 5.85205 6.91406 5.03906C7.71484 4.28223 9.021 3.85254 10.8789 3.78906ZM8.125 10C7.78076 10 7.5 10.2808 7.5 10.625C7.5 10.9692 7.78076 11.25 8.125 11.25C8.46924 11.25 8.75 10.9692 8.75 10.625C8.75 10.2808 8.46924 10 8.125 10ZM11.875 10C11.5308 10 11.25 10.2808 11.25 10.625C11.25 10.9692 11.5308 11.25 11.875 11.25C12.2192 11.25 12.5 10.9692 12.5 10.625C12.5 10.2808 12.2192 10 11.875 10Z" fill="#109CF1"/>
</svg>
